<mxfile host="app.diagrams.net" agent="Mozilla/5.0 (Windows NT 10.0; Win64; x64) AppleWebKit/537.36 (KHTML, like Gecko) Chrome/121.0.0.0 Safari/537.36 Edg/121.0.0.0" version="28.2.5">
  <diagram id="ARg0tk8LJE-CubynEVjH" name="Page-1">
    <mxGraphModel dx="1761" dy="1002" grid="1" gridSize="10" guides="1" tooltips="1" connect="1" arrows="1" fold="1" page="1" pageScale="1" pageWidth="827" pageHeight="1169" math="0" shadow="0">
      <root>
        <mxCell id="EQqzBME4NySdauk0LeME-0" />
        <mxCell id="EQqzBME4NySdauk0LeME-1" parent="EQqzBME4NySdauk0LeME-0" />
        <mxCell id="fPRrngTSwXQhzS_9Z5XC-0" value="NSX-T Manager Node # 1" style="rounded=0;whiteSpace=wrap;html=1;" vertex="1" parent="EQqzBME4NySdauk0LeME-1">
          <mxGeometry x="360" y="150" width="160" height="20" as="geometry" />
        </mxCell>
        <mxCell id="fPRrngTSwXQhzS_9Z5XC-1" value="NSX-T Manager Node # 2" style="rounded=0;whiteSpace=wrap;html=1;" vertex="1" parent="EQqzBME4NySdauk0LeME-1">
          <mxGeometry x="360" y="180" width="160" height="20" as="geometry" />
        </mxCell>
        <mxCell id="fPRrngTSwXQhzS_9Z5XC-2" value="NSX-T Manager Node # 3" style="rounded=0;whiteSpace=wrap;html=1;" vertex="1" parent="EQqzBME4NySdauk0LeME-1">
          <mxGeometry x="360" y="210" width="160" height="20" as="geometry" />
        </mxCell>
        <mxCell id="fPRrngTSwXQhzS_9Z5XC-3" value="NSX-T Management Cluster" style="text;html=1;align=center;verticalAlign=middle;whiteSpace=wrap;rounded=0;fontStyle=1" vertex="1" parent="EQqzBME4NySdauk0LeME-1">
          <mxGeometry x="360" y="120" width="160" height="30" as="geometry" />
        </mxCell>
        <mxCell id="fPRrngTSwXQhzS_9Z5XC-4" value="" style="rounded=0;whiteSpace=wrap;html=1;fillColor=none;strokeColor=#6c8ebf;" vertex="1" parent="EQqzBME4NySdauk0LeME-1">
          <mxGeometry x="350" y="120" width="180" height="120" as="geometry" />
        </mxCell>
        <mxCell id="fPRrngTSwXQhzS_9Z5XC-5" value="UI" style="rounded=1;whiteSpace=wrap;html=1;" vertex="1" parent="EQqzBME4NySdauk0LeME-1">
          <mxGeometry x="80" y="87.5" width="120" height="15" as="geometry" />
        </mxCell>
        <mxCell id="fPRrngTSwXQhzS_9Z5XC-6" value="REST API" style="rounded=1;whiteSpace=wrap;html=1;" vertex="1" parent="EQqzBME4NySdauk0LeME-1">
          <mxGeometry x="80" y="110" width="120" height="15" as="geometry" />
        </mxCell>
        <mxCell id="fPRrngTSwXQhzS_9Z5XC-7" value="Cloud Management Platform (CPM)" style="rounded=1;whiteSpace=wrap;html=1;" vertex="1" parent="EQqzBME4NySdauk0LeME-1">
          <mxGeometry x="80" y="132.5" width="120" height="35" as="geometry" />
        </mxCell>
        <mxCell id="fPRrngTSwXQhzS_9Z5XC-8" value="vCenter Server" style="rounded=1;whiteSpace=wrap;html=1;" vertex="1" parent="EQqzBME4NySdauk0LeME-1">
          <mxGeometry x="80" y="177.5" width="120" height="15" as="geometry" />
        </mxCell>
        <mxCell id="fPRrngTSwXQhzS_9Z5XC-9" value="Cloud Service Manager (CSM)" style="rounded=1;whiteSpace=wrap;html=1;" vertex="1" parent="EQqzBME4NySdauk0LeME-1">
          <mxGeometry x="80" y="202.5" width="120" height="30" as="geometry" />
        </mxCell>
        <mxCell id="fPRrngTSwXQhzS_9Z5XC-10" value="NSX Container Plug-IN (NCP)" style="rounded=1;whiteSpace=wrap;html=1;" vertex="1" parent="EQqzBME4NySdauk0LeME-1">
          <mxGeometry x="80" y="242.5" width="120" height="30" as="geometry" />
        </mxCell>
        <mxCell id="fPRrngTSwXQhzS_9Z5XC-11" value="" style="shape=flexArrow;endArrow=classic;html=1;rounded=0;" edge="1" parent="EQqzBME4NySdauk0LeME-1">
          <mxGeometry width="50" height="50" relative="1" as="geometry">
            <mxPoint x="260" y="179.70999999999998" as="sourcePoint" />
            <mxPoint x="340" y="179.70999999999998" as="targetPoint" />
          </mxGeometry>
        </mxCell>
        <mxCell id="fPRrngTSwXQhzS_9Z5XC-12" value="" style="endArrow=classic;html=1;rounded=0;exitX=1;exitY=0.5;exitDx=0;exitDy=0;" edge="1" parent="EQqzBME4NySdauk0LeME-1" source="fPRrngTSwXQhzS_9Z5XC-5">
          <mxGeometry width="50" height="50" relative="1" as="geometry">
            <mxPoint x="210" y="100" as="sourcePoint" />
            <mxPoint x="230" y="95" as="targetPoint" />
          </mxGeometry>
        </mxCell>
        <mxCell id="fPRrngTSwXQhzS_9Z5XC-13" value="" style="endArrow=classic;html=1;rounded=0;exitX=1;exitY=0.5;exitDx=0;exitDy=0;" edge="1" parent="EQqzBME4NySdauk0LeME-1">
          <mxGeometry width="50" height="50" relative="1" as="geometry">
            <mxPoint x="200" y="117.32999999999998" as="sourcePoint" />
            <mxPoint x="230" y="117.32999999999998" as="targetPoint" />
          </mxGeometry>
        </mxCell>
        <mxCell id="fPRrngTSwXQhzS_9Z5XC-14" value="" style="endArrow=classic;html=1;rounded=0;exitX=1;exitY=0.5;exitDx=0;exitDy=0;" edge="1" parent="EQqzBME4NySdauk0LeME-1">
          <mxGeometry width="50" height="50" relative="1" as="geometry">
            <mxPoint x="200" y="149.67000000000002" as="sourcePoint" />
            <mxPoint x="230" y="149.67000000000002" as="targetPoint" />
          </mxGeometry>
        </mxCell>
        <mxCell id="fPRrngTSwXQhzS_9Z5XC-15" value="" style="endArrow=classic;html=1;rounded=0;exitX=1;exitY=0.5;exitDx=0;exitDy=0;" edge="1" parent="EQqzBME4NySdauk0LeME-1">
          <mxGeometry width="50" height="50" relative="1" as="geometry">
            <mxPoint x="200" y="184.82999999999998" as="sourcePoint" />
            <mxPoint x="230" y="184.82999999999998" as="targetPoint" />
          </mxGeometry>
        </mxCell>
        <mxCell id="fPRrngTSwXQhzS_9Z5XC-16" value="" style="endArrow=classic;html=1;rounded=0;exitX=1;exitY=0.5;exitDx=0;exitDy=0;" edge="1" parent="EQqzBME4NySdauk0LeME-1">
          <mxGeometry width="50" height="50" relative="1" as="geometry">
            <mxPoint x="200" y="217.32999999999998" as="sourcePoint" />
            <mxPoint x="230" y="217.32999999999998" as="targetPoint" />
          </mxGeometry>
        </mxCell>
        <mxCell id="fPRrngTSwXQhzS_9Z5XC-17" value="" style="endArrow=classic;html=1;rounded=0;exitX=1;exitY=0.5;exitDx=0;exitDy=0;" edge="1" parent="EQqzBME4NySdauk0LeME-1">
          <mxGeometry width="50" height="50" relative="1" as="geometry">
            <mxPoint x="200" y="257.33" as="sourcePoint" />
            <mxPoint x="230" y="257.33" as="targetPoint" />
          </mxGeometry>
        </mxCell>
        <mxCell id="fPRrngTSwXQhzS_9Z5XC-18" value="" style="shape=curlyBracket;whiteSpace=wrap;html=1;rounded=1;flipH=1;labelPosition=right;verticalLabelPosition=middle;align=left;verticalAlign=middle;" vertex="1" parent="EQqzBME4NySdauk0LeME-1">
          <mxGeometry x="230" y="80" width="30" height="200" as="geometry" />
        </mxCell>
        <mxCell id="fPRrngTSwXQhzS_9Z5XC-19" value="" style="endArrow=none;dashed=1;html=1;dashPattern=1 3;strokeWidth=2;rounded=0;" edge="1" parent="EQqzBME4NySdauk0LeME-1">
          <mxGeometry width="50" height="50" relative="1" as="geometry">
            <mxPoint x="60" y="300" as="sourcePoint" />
            <mxPoint x="580" y="300" as="targetPoint" />
          </mxGeometry>
        </mxCell>
        <mxCell id="fPRrngTSwXQhzS_9Z5XC-20" value="&lt;b&gt;Data Plane&lt;/b&gt;" style="text;html=1;align=center;verticalAlign=middle;whiteSpace=wrap;rounded=0;" vertex="1" parent="EQqzBME4NySdauk0LeME-1">
          <mxGeometry x="40" y="300" width="90" height="30" as="geometry" />
        </mxCell>
        <mxCell id="fPRrngTSwXQhzS_9Z5XC-21" value="&lt;b&gt;Control Plane&lt;/b&gt;" style="text;html=1;align=center;verticalAlign=middle;whiteSpace=wrap;rounded=0;" vertex="1" parent="EQqzBME4NySdauk0LeME-1">
          <mxGeometry x="40" y="50" width="90" height="30" as="geometry" />
        </mxCell>
        <mxCell id="fPRrngTSwXQhzS_9Z5XC-22" value="NSX-T Manager Node # 1" style="rounded=0;whiteSpace=wrap;html=1;" vertex="1" parent="EQqzBME4NySdauk0LeME-1">
          <mxGeometry x="390" y="600" width="160" height="20" as="geometry" />
        </mxCell>
        <mxCell id="fPRrngTSwXQhzS_9Z5XC-23" value="NSX-T Manager Node # 2" style="rounded=0;whiteSpace=wrap;html=1;" vertex="1" parent="EQqzBME4NySdauk0LeME-1">
          <mxGeometry x="390" y="630" width="160" height="20" as="geometry" />
        </mxCell>
        <mxCell id="fPRrngTSwXQhzS_9Z5XC-24" value="NSX-T Manager Node # 3" style="rounded=0;whiteSpace=wrap;html=1;" vertex="1" parent="EQqzBME4NySdauk0LeME-1">
          <mxGeometry x="390" y="660" width="160" height="20" as="geometry" />
        </mxCell>
        <mxCell id="fPRrngTSwXQhzS_9Z5XC-25" value="NSX-T Management Cluster" style="text;html=1;align=center;verticalAlign=middle;whiteSpace=wrap;rounded=0;fontStyle=1" vertex="1" parent="EQqzBME4NySdauk0LeME-1">
          <mxGeometry x="390" y="570" width="160" height="30" as="geometry" />
        </mxCell>
        <mxCell id="fPRrngTSwXQhzS_9Z5XC-26" value="" style="rounded=0;whiteSpace=wrap;html=1;fillColor=none;strokeColor=#6c8ebf;" vertex="1" parent="EQqzBME4NySdauk0LeME-1">
          <mxGeometry x="380" y="570" width="180" height="120" as="geometry" />
        </mxCell>
        <mxCell id="fPRrngTSwXQhzS_9Z5XC-27" value="" style="shape=flexArrow;endArrow=classic;html=1;rounded=0;fillColor=#f8cecc;strokeColor=#b85450;" edge="1" parent="EQqzBME4NySdauk0LeME-1">
          <mxGeometry width="50" height="50" relative="1" as="geometry">
            <mxPoint x="600" y="650" as="sourcePoint" />
            <mxPoint x="550" y="610" as="targetPoint" />
          </mxGeometry>
        </mxCell>
        <mxCell id="fPRrngTSwXQhzS_9Z5XC-28" value="Leader Manager" style="text;html=1;align=center;verticalAlign=middle;whiteSpace=wrap;rounded=0;fontStyle=1" vertex="1" parent="EQqzBME4NySdauk0LeME-1">
          <mxGeometry x="600" y="635" width="60" height="30" as="geometry" />
        </mxCell>
        <mxCell id="fPRrngTSwXQhzS_9Z5XC-29" value="10.10.10.11/24" style="text;html=1;align=center;verticalAlign=middle;whiteSpace=wrap;rounded=0;" vertex="1" parent="EQqzBME4NySdauk0LeME-1">
          <mxGeometry x="305" y="595" width="60" height="30" as="geometry" />
        </mxCell>
        <mxCell id="fPRrngTSwXQhzS_9Z5XC-30" value="10.10.10.12/24" style="text;html=1;align=center;verticalAlign=middle;whiteSpace=wrap;rounded=0;" vertex="1" parent="EQqzBME4NySdauk0LeME-1">
          <mxGeometry x="305" y="625" width="60" height="30" as="geometry" />
        </mxCell>
        <mxCell id="fPRrngTSwXQhzS_9Z5XC-31" value="10.10.10.13/24" style="text;html=1;align=center;verticalAlign=middle;whiteSpace=wrap;rounded=0;" vertex="1" parent="EQqzBME4NySdauk0LeME-1">
          <mxGeometry x="305" y="655" width="60" height="30" as="geometry" />
        </mxCell>
        <mxCell id="fPRrngTSwXQhzS_9Z5XC-32" value="&lt;br&gt;&lt;span style=&quot;color: rgb(0, 0, 0); font-family: Helvetica; font-size: 12px; font-style: normal; font-variant-ligatures: normal; font-variant-caps: normal; font-weight: 400; letter-spacing: normal; orphans: 2; text-align: center; text-indent: 0px; text-transform: none; widows: 2; word-spacing: 0px; -webkit-text-stroke-width: 0px; white-space: normal; text-decoration-thickness: initial; text-decoration-style: initial; text-decoration-color: initial; float: none; background-color: light-dark(#ffffff, var(--ge-dark-color, #121212)); display: inline !important;&quot;&gt;10.10.10.10/24&lt;/span&gt;&lt;div&gt;&lt;br&gt;&lt;/div&gt;" style="rounded=1;whiteSpace=wrap;html=1;" vertex="1" parent="EQqzBME4NySdauk0LeME-1">
          <mxGeometry x="161.5" y="620" width="90" height="30" as="geometry" />
        </mxCell>
        <mxCell id="fPRrngTSwXQhzS_9Z5XC-33" value="" style="endArrow=classic;html=1;rounded=0;fillColor=#d5e8d4;strokeColor=#82b366;exitX=1;exitY=0.5;exitDx=0;exitDy=0;" edge="1" parent="EQqzBME4NySdauk0LeME-1" source="fPRrngTSwXQhzS_9Z5XC-32">
          <mxGeometry width="50" height="50" relative="1" as="geometry">
            <mxPoint x="251.5" y="635" as="sourcePoint" />
            <mxPoint x="290" y="615" as="targetPoint" />
          </mxGeometry>
        </mxCell>
        <mxCell id="fPRrngTSwXQhzS_9Z5XC-34" value="" style="endArrow=classic;html=1;rounded=0;exitX=1;exitY=0.5;exitDx=0;exitDy=0;fillColor=#ffe6cc;strokeColor=#d79b00;" edge="1" parent="EQqzBME4NySdauk0LeME-1" source="fPRrngTSwXQhzS_9Z5XC-32">
          <mxGeometry width="50" height="50" relative="1" as="geometry">
            <mxPoint x="260" y="645" as="sourcePoint" />
            <mxPoint x="290" y="635" as="targetPoint" />
          </mxGeometry>
        </mxCell>
        <mxCell id="fPRrngTSwXQhzS_9Z5XC-35" value="" style="endArrow=classic;html=1;rounded=0;exitX=1;exitY=0.5;exitDx=0;exitDy=0;fillColor=#ffe6cc;strokeColor=#d79b00;" edge="1" parent="EQqzBME4NySdauk0LeME-1" source="fPRrngTSwXQhzS_9Z5XC-32">
          <mxGeometry width="50" height="50" relative="1" as="geometry">
            <mxPoint x="270" y="660" as="sourcePoint" />
            <mxPoint x="290" y="665" as="targetPoint" />
          </mxGeometry>
        </mxCell>
        <mxCell id="fPRrngTSwXQhzS_9Z5XC-36" value="" style="endArrow=classic;html=1;rounded=0;" edge="1" parent="EQqzBME4NySdauk0LeME-1">
          <mxGeometry width="50" height="50" relative="1" as="geometry">
            <mxPoint x="130" y="635" as="sourcePoint" />
            <mxPoint x="160" y="635" as="targetPoint" />
          </mxGeometry>
        </mxCell>
        <mxCell id="fPRrngTSwXQhzS_9Z5XC-37" value="UI" style="rounded=1;whiteSpace=wrap;html=1;" vertex="1" parent="EQqzBME4NySdauk0LeME-1">
          <mxGeometry x="69" y="616.25" width="61" height="15" as="geometry" />
        </mxCell>
        <mxCell id="fPRrngTSwXQhzS_9Z5XC-38" value="REST API" style="rounded=1;whiteSpace=wrap;html=1;" vertex="1" parent="EQqzBME4NySdauk0LeME-1">
          <mxGeometry x="69" y="638.75" width="61" height="15" as="geometry" />
        </mxCell>
        <mxCell id="fPRrngTSwXQhzS_9Z5XC-39" value="NSX-T Manager Node # 1" style="rounded=0;whiteSpace=wrap;html=1;" vertex="1" parent="EQqzBME4NySdauk0LeME-1">
          <mxGeometry x="390" y="730" width="160" height="20" as="geometry" />
        </mxCell>
        <mxCell id="fPRrngTSwXQhzS_9Z5XC-40" value="NSX-T Manager Node # 2" style="rounded=0;whiteSpace=wrap;html=1;" vertex="1" parent="EQqzBME4NySdauk0LeME-1">
          <mxGeometry x="390" y="760" width="160" height="20" as="geometry" />
        </mxCell>
        <mxCell id="fPRrngTSwXQhzS_9Z5XC-41" value="NSX-T Manager Node # 3" style="rounded=0;whiteSpace=wrap;html=1;" vertex="1" parent="EQqzBME4NySdauk0LeME-1">
          <mxGeometry x="390" y="790" width="160" height="20" as="geometry" />
        </mxCell>
        <mxCell id="fPRrngTSwXQhzS_9Z5XC-42" value="NSX-T Management Cluster" style="text;html=1;align=center;verticalAlign=middle;whiteSpace=wrap;rounded=0;fontStyle=1" vertex="1" parent="EQqzBME4NySdauk0LeME-1">
          <mxGeometry x="390" y="700" width="160" height="30" as="geometry" />
        </mxCell>
        <mxCell id="fPRrngTSwXQhzS_9Z5XC-43" value="" style="rounded=0;whiteSpace=wrap;html=1;fillColor=none;strokeColor=#6c8ebf;" vertex="1" parent="EQqzBME4NySdauk0LeME-1">
          <mxGeometry x="380" y="700" width="180" height="120" as="geometry" />
        </mxCell>
        <mxCell id="fPRrngTSwXQhzS_9Z5XC-44" value="10.10.10.11/24" style="text;html=1;align=center;verticalAlign=middle;whiteSpace=wrap;rounded=0;" vertex="1" parent="EQqzBME4NySdauk0LeME-1">
          <mxGeometry x="305" y="725" width="60" height="30" as="geometry" />
        </mxCell>
        <mxCell id="fPRrngTSwXQhzS_9Z5XC-45" value="10.10.10.12/24" style="text;html=1;align=center;verticalAlign=middle;whiteSpace=wrap;rounded=0;" vertex="1" parent="EQqzBME4NySdauk0LeME-1">
          <mxGeometry x="305" y="755" width="60" height="30" as="geometry" />
        </mxCell>
        <mxCell id="fPRrngTSwXQhzS_9Z5XC-46" value="10.10.10.13/24" style="text;html=1;align=center;verticalAlign=middle;whiteSpace=wrap;rounded=0;" vertex="1" parent="EQqzBME4NySdauk0LeME-1">
          <mxGeometry x="305" y="785" width="60" height="30" as="geometry" />
        </mxCell>
        <mxCell id="fPRrngTSwXQhzS_9Z5XC-47" value="" style="endArrow=classic;html=1;rounded=0;fillColor=#d5e8d4;strokeColor=#82b366;exitX=1;exitY=0.5;exitDx=0;exitDy=0;" edge="1" parent="EQqzBME4NySdauk0LeME-1">
          <mxGeometry width="50" height="50" relative="1" as="geometry">
            <mxPoint x="251.5" y="765" as="sourcePoint" />
            <mxPoint x="290" y="745" as="targetPoint" />
          </mxGeometry>
        </mxCell>
        <mxCell id="fPRrngTSwXQhzS_9Z5XC-48" value="" style="endArrow=classic;html=1;rounded=0;exitX=1;exitY=0.5;exitDx=0;exitDy=0;fillColor=#ffe6cc;strokeColor=#d79b00;" edge="1" parent="EQqzBME4NySdauk0LeME-1">
          <mxGeometry width="50" height="50" relative="1" as="geometry">
            <mxPoint x="251.5" y="765" as="sourcePoint" />
            <mxPoint x="290" y="765" as="targetPoint" />
          </mxGeometry>
        </mxCell>
        <mxCell id="fPRrngTSwXQhzS_9Z5XC-49" value="" style="endArrow=classic;html=1;rounded=0;exitX=1;exitY=0.5;exitDx=0;exitDy=0;fillColor=#ffe6cc;strokeColor=#d79b00;" edge="1" parent="EQqzBME4NySdauk0LeME-1">
          <mxGeometry width="50" height="50" relative="1" as="geometry">
            <mxPoint x="251.5" y="765" as="sourcePoint" />
            <mxPoint x="290" y="795" as="targetPoint" />
          </mxGeometry>
        </mxCell>
        <mxCell id="fPRrngTSwXQhzS_9Z5XC-50" value="" style="endArrow=classic;html=1;rounded=0;" edge="1" parent="EQqzBME4NySdauk0LeME-1">
          <mxGeometry width="50" height="50" relative="1" as="geometry">
            <mxPoint x="130" y="765" as="sourcePoint" />
            <mxPoint x="160" y="765" as="targetPoint" />
          </mxGeometry>
        </mxCell>
        <mxCell id="fPRrngTSwXQhzS_9Z5XC-51" value="UI" style="rounded=1;whiteSpace=wrap;html=1;" vertex="1" parent="EQqzBME4NySdauk0LeME-1">
          <mxGeometry x="69" y="746.25" width="61" height="15" as="geometry" />
        </mxCell>
        <mxCell id="fPRrngTSwXQhzS_9Z5XC-52" value="REST API" style="rounded=1;whiteSpace=wrap;html=1;" vertex="1" parent="EQqzBME4NySdauk0LeME-1">
          <mxGeometry x="69" y="768.75" width="61" height="15" as="geometry" />
        </mxCell>
        <mxCell id="fPRrngTSwXQhzS_9Z5XC-53" value="&lt;span style=&quot;color: rgb(0, 0, 0); text-wrap: wrap; float: none; display: inline !important;&quot;&gt;10.10.10.10/24&lt;/span&gt;" style="sketch=0;outlineConnect=0;fontColor=#232F3E;gradientColor=none;fillColor=#8C4FFF;strokeColor=none;dashed=0;verticalLabelPosition=bottom;verticalAlign=top;align=center;html=1;fontSize=12;fontStyle=0;aspect=fixed;pointerEvents=1;shape=mxgraph.aws4.network_load_balancer;" vertex="1" parent="EQqzBME4NySdauk0LeME-1">
          <mxGeometry x="173.5" y="725" width="78" height="78" as="geometry" />
        </mxCell>
        <mxCell id="fPRrngTSwXQhzS_9Z5XC-54" value="" style="group" vertex="1" connectable="0" parent="EQqzBME4NySdauk0LeME-1">
          <mxGeometry x="80" y="330" width="250" height="210" as="geometry" />
        </mxCell>
        <mxCell id="fPRrngTSwXQhzS_9Z5XC-55" value="" style="group" vertex="1" connectable="0" parent="fPRrngTSwXQhzS_9Z5XC-54">
          <mxGeometry x="20" y="40" width="230" height="170" as="geometry" />
        </mxCell>
        <mxCell id="fPRrngTSwXQhzS_9Z5XC-56" value="VM(s)" style="rounded=0;whiteSpace=wrap;html=1;fontSize=8;" vertex="1" parent="fPRrngTSwXQhzS_9Z5XC-55">
          <mxGeometry x="5" y="30" width="50" height="10" as="geometry" />
        </mxCell>
        <mxCell id="fPRrngTSwXQhzS_9Z5XC-57" value="Container(s)" style="rounded=0;whiteSpace=wrap;html=1;fontSize=8;" vertex="1" parent="fPRrngTSwXQhzS_9Z5XC-55">
          <mxGeometry x="5" y="50" width="50" height="10" as="geometry" />
        </mxCell>
        <mxCell id="fPRrngTSwXQhzS_9Z5XC-58" value="ESXi Host" style="text;html=1;align=center;verticalAlign=middle;whiteSpace=wrap;rounded=0;" vertex="1" parent="fPRrngTSwXQhzS_9Z5XC-55">
          <mxGeometry width="60" height="30" as="geometry" />
        </mxCell>
        <mxCell id="fPRrngTSwXQhzS_9Z5XC-59" value="" style="rounded=0;whiteSpace=wrap;html=1;fillColor=none;" vertex="1" parent="fPRrngTSwXQhzS_9Z5XC-55">
          <mxGeometry y="5" width="65" height="60" as="geometry" />
        </mxCell>
        <mxCell id="fPRrngTSwXQhzS_9Z5XC-60" value="" style="group" vertex="1" connectable="0" parent="fPRrngTSwXQhzS_9Z5XC-54">
          <mxGeometry x="90" y="40" width="65" height="65" as="geometry" />
        </mxCell>
        <mxCell id="fPRrngTSwXQhzS_9Z5XC-61" value="VM(s)" style="rounded=0;whiteSpace=wrap;html=1;fontSize=8;" vertex="1" parent="fPRrngTSwXQhzS_9Z5XC-60">
          <mxGeometry x="5" y="30" width="50" height="10" as="geometry" />
        </mxCell>
        <mxCell id="fPRrngTSwXQhzS_9Z5XC-62" value="Container(s)" style="rounded=0;whiteSpace=wrap;html=1;fontSize=8;" vertex="1" parent="fPRrngTSwXQhzS_9Z5XC-60">
          <mxGeometry x="5" y="50" width="50" height="10" as="geometry" />
        </mxCell>
        <mxCell id="fPRrngTSwXQhzS_9Z5XC-63" value="KVM Host" style="text;html=1;align=center;verticalAlign=middle;whiteSpace=wrap;rounded=0;" vertex="1" parent="fPRrngTSwXQhzS_9Z5XC-60">
          <mxGeometry width="60" height="30" as="geometry" />
        </mxCell>
        <mxCell id="fPRrngTSwXQhzS_9Z5XC-64" value="" style="rounded=0;whiteSpace=wrap;html=1;fillColor=none;" vertex="1" parent="fPRrngTSwXQhzS_9Z5XC-60">
          <mxGeometry y="5" width="65" height="60" as="geometry" />
        </mxCell>
        <mxCell id="fPRrngTSwXQhzS_9Z5XC-65" value="Bare Metal Server" style="rounded=0;whiteSpace=wrap;html=1;fillColor=none;" vertex="1" parent="fPRrngTSwXQhzS_9Z5XC-54">
          <mxGeometry x="160" y="45" width="65" height="60" as="geometry" />
        </mxCell>
        <mxCell id="fPRrngTSwXQhzS_9Z5XC-66" value="Host Transport Nodes" style="text;html=1;align=center;verticalAlign=middle;whiteSpace=wrap;rounded=0;" vertex="1" parent="fPRrngTSwXQhzS_9Z5XC-54">
          <mxGeometry x="59" y="20" width="127" height="30" as="geometry" />
        </mxCell>
        <mxCell id="fPRrngTSwXQhzS_9Z5XC-67" value="" style="rounded=0;whiteSpace=wrap;html=1;fillColor=none;strokeColor=#82b366;" vertex="1" parent="fPRrngTSwXQhzS_9Z5XC-54">
          <mxGeometry x="10" y="25" width="230" height="95" as="geometry" />
        </mxCell>
        <mxCell id="fPRrngTSwXQhzS_9Z5XC-68" value="" style="rounded=0;whiteSpace=wrap;html=1;fillColor=none;strokeColor=#82b366;" vertex="1" parent="fPRrngTSwXQhzS_9Z5XC-54">
          <mxGeometry x="11.5" y="130" width="230" height="70" as="geometry" />
        </mxCell>
        <mxCell id="fPRrngTSwXQhzS_9Z5XC-69" value="Bare Metal VM" style="rounded=0;whiteSpace=wrap;html=1;" vertex="1" parent="fPRrngTSwXQhzS_9Z5XC-54">
          <mxGeometry x="20" y="160" width="100" height="30" as="geometry" />
        </mxCell>
        <mxCell id="fPRrngTSwXQhzS_9Z5XC-70" value="Edge Transport Nodes" style="text;html=1;align=center;verticalAlign=middle;whiteSpace=wrap;rounded=0;" vertex="1" parent="fPRrngTSwXQhzS_9Z5XC-54">
          <mxGeometry x="63" y="130" width="127" height="30" as="geometry" />
        </mxCell>
        <mxCell id="fPRrngTSwXQhzS_9Z5XC-71" value="Edge VM" style="rounded=0;whiteSpace=wrap;html=1;" vertex="1" parent="fPRrngTSwXQhzS_9Z5XC-54">
          <mxGeometry x="125" y="160" width="100" height="30" as="geometry" />
        </mxCell>
        <mxCell id="fPRrngTSwXQhzS_9Z5XC-72" value="" style="rounded=0;whiteSpace=wrap;html=1;fillColor=none;strokeColor=#9673a6;" vertex="1" parent="fPRrngTSwXQhzS_9Z5XC-54">
          <mxGeometry width="250" height="210" as="geometry" />
        </mxCell>
        <mxCell id="fPRrngTSwXQhzS_9Z5XC-73" value="Private Cloud(s)" style="text;html=1;align=center;verticalAlign=middle;whiteSpace=wrap;rounded=0;" vertex="1" parent="fPRrngTSwXQhzS_9Z5XC-54">
          <mxGeometry x="37.5" width="170" height="30" as="geometry" />
        </mxCell>
        <mxCell id="fPRrngTSwXQhzS_9Z5XC-74" value="" style="group" vertex="1" connectable="0" parent="EQqzBME4NySdauk0LeME-1">
          <mxGeometry x="340" y="330" width="220" height="210" as="geometry" />
        </mxCell>
        <mxCell id="fPRrngTSwXQhzS_9Z5XC-75" value="Linux VM(s)" style="rounded=0;whiteSpace=wrap;html=1;" vertex="1" parent="fPRrngTSwXQhzS_9Z5XC-74">
          <mxGeometry x="20" y="55" width="80" height="40" as="geometry" />
        </mxCell>
        <mxCell id="fPRrngTSwXQhzS_9Z5XC-76" value="Windows VM(s)" style="rounded=0;whiteSpace=wrap;html=1;" vertex="1" parent="fPRrngTSwXQhzS_9Z5XC-74">
          <mxGeometry x="115" y="55" width="80" height="40" as="geometry" />
        </mxCell>
        <mxCell id="fPRrngTSwXQhzS_9Z5XC-77" value="" style="rounded=0;whiteSpace=wrap;html=1;fillColor=none;strokeColor=#82b366;" vertex="1" parent="fPRrngTSwXQhzS_9Z5XC-74">
          <mxGeometry x="10" y="25" width="200" height="80" as="geometry" />
        </mxCell>
        <mxCell id="fPRrngTSwXQhzS_9Z5XC-78" value="VM(s)" style="text;html=1;align=center;verticalAlign=middle;whiteSpace=wrap;rounded=0;" vertex="1" parent="fPRrngTSwXQhzS_9Z5XC-74">
          <mxGeometry x="80" y="25" width="60" height="30" as="geometry" />
        </mxCell>
        <mxCell id="fPRrngTSwXQhzS_9Z5XC-79" value="NSX Cloud Gateway" style="rounded=0;whiteSpace=wrap;html=1;" vertex="1" parent="fPRrngTSwXQhzS_9Z5XC-74">
          <mxGeometry x="20" y="130" width="180" height="60" as="geometry" />
        </mxCell>
        <mxCell id="fPRrngTSwXQhzS_9Z5XC-80" value="Public Cloud(s)" style="text;html=1;align=center;verticalAlign=middle;whiteSpace=wrap;rounded=0;" vertex="1" parent="fPRrngTSwXQhzS_9Z5XC-74">
          <mxGeometry x="25" width="170" height="30" as="geometry" />
        </mxCell>
        <mxCell id="fPRrngTSwXQhzS_9Z5XC-81" value="" style="rounded=0;whiteSpace=wrap;html=1;fillColor=none;strokeColor=#9673a6;" vertex="1" parent="fPRrngTSwXQhzS_9Z5XC-74">
          <mxGeometry width="220" height="210" as="geometry" />
        </mxCell>
      </root>
    </mxGraphModel>
  </diagram>
</mxfile>
